<?xml version="1.0" encoding="UTF-8" standalone="no"?>
<svg
   xmlns:dc="http://purl.org/dc/elements/1.1/"
   xmlns:cc="http://creativecommons.org/ns#"
   xmlns:rdf="http://www.w3.org/1999/02/22-rdf-syntax-ns#"
   xmlns:svg="http://www.w3.org/2000/svg"
   xmlns="http://www.w3.org/2000/svg"
   xmlns:xlink="http://www.w3.org/1999/xlink"
   xmlns:sodipodi="http://sodipodi.sourceforge.net/DTD/sodipodi-0.dtd"
   xmlns:inkscape="http://www.inkscape.org/namespaces/inkscape"
   width="132.36937mm"
   height="89.278206mm"
   viewBox="0 0 132.36937 89.278206"
   version="1.1"
   id="svg8"
   inkscape:version="1.0.1 (3bc2e813f5, 2020-09-07)"
   sodipodi:docname="noozoid.svg">
  <defs
     id="defs2" />
  <sodipodi:namedview
     id="base"
     pagecolor="#ffffff"
     bordercolor="#666666"
     borderopacity="1.0"
     inkscape:pageopacity="0.0"
     inkscape:pageshadow="2"
     inkscape:zoom="1"
     inkscape:cx="209.15194"
     inkscape:cy="77.910484"
     inkscape:document-units="mm"
     inkscape:current-layer="g905"
     inkscape:document-rotation="0"
     showgrid="false"
     fit-margin-top="5"
     fit-margin-left="5"
     fit-margin-right="5"
     fit-margin-bottom="5"
     inkscape:window-width="1544"
     inkscape:window-height="871"
     inkscape:window-x="0"
     inkscape:window-y="0"
     inkscape:window-maximized="1" />
  <metadata
     id="metadata5">
    <rdf:RDF>
      <cc:Work
         rdf:about="">
        <dc:format>image/svg+xml</dc:format>
        <dc:type
           rdf:resource="http://purl.org/dc/dcmitype/StillImage" />
        <dc:title></dc:title>
      </cc:Work>
    </rdf:RDF>
  </metadata>
  <g
     inkscape:label="Calque 1"
     inkscape:groupmode="layer"
     id="layer1"
     style="display:inline"
     transform="translate(-21.491253,-44.088269)">
    <g
       id="g905">
      <path
         style="fill:none;fill-rule:evenodd;stroke:#5c3566;stroke-width:4;stroke-linecap:butt;stroke-linejoin:miter;stroke-miterlimit:4;stroke-dasharray:none;stroke-opacity:1"
         d="m 104.73635,75.327938 c 0,0 15.526,-3.802721 18.34106,-6.115627 2.81506,-2.312906 3.93673,-9.806678 6.59376,-13.006918 2.65703,-3.20024 7.7476,-4.418442 9.96561,-5.242273"
         id="path854"
         sodipodi:nodetypes="czzc" />
      <path
         style="fill:none;fill-rule:evenodd;stroke:#5c3566;stroke-width:4;stroke-linecap:butt;stroke-linejoin:miter;stroke-miterlimit:4;stroke-dasharray:none;stroke-opacity:1"
         d="m 100.40508,102.1268 c 0,0 15.52602,3.80272 18.34108,6.11563 2.81506,2.31291 3.93672,9.80668 6.59376,13.00692 2.65703,3.20024 7.7476,4.41844 9.96561,5.24227"
         id="path856"
         sodipodi:nodetypes="czzc" />
      <path
         style="fill:none;fill-rule:evenodd;stroke:#5c3566;stroke-width:4;stroke-linecap:butt;stroke-linejoin:miter;stroke-miterlimit:4;stroke-dasharray:none;stroke-opacity:1"
         d="m 71.673906,76.103535 c 0,0 -15.525997,-3.802721 -18.341055,-6.115627 C 50.517794,67.675002 49.396126,60.18123 46.739097,56.98099 44.082068,53.78075 38.9915,52.562548 36.773494,51.738717"
         id="path850"
         sodipodi:nodetypes="czzc" />
      <path
         style="fill:none;fill-rule:evenodd;stroke:#5c3566;stroke-width:4;stroke-linecap:butt;stroke-linejoin:miter;stroke-miterlimit:4;stroke-dasharray:none;stroke-opacity:1"
         d="m 105.79363,95.600544 c 0,0 14.90482,-5.776178 18.53715,-5.492749 3.63232,0.283429 8.84415,5.783566 12.85521,6.884851 4.01105,1.10129 8.88155,-0.816018 11.17154,-1.411195"
         id="path874"
         sodipodi:nodetypes="czzc"
         inkscape:transform-center-x="-19.933116"
         inkscape:transform-center-y="-1.4158676" />
      <use
         x="0"
         y="0"
         xlink:href="#g836"
         id="use848"
         transform="rotate(180,88.606666,90.141345)"
         width="100%"
         height="100%"
         style="fill:#204a87;stroke:#5c3566" />
      <path
         style="fill:none;fill-rule:evenodd;stroke:#5c3566;stroke-width:4;stroke-linecap:butt;stroke-linejoin:miter;stroke-miterlimit:4;stroke-dasharray:none;stroke-opacity:1"
         d="m 74.240659,102.1268 c 0,0 -15.525997,3.80272 -18.341055,6.11563 -2.815057,2.31291 -3.936725,9.80668 -6.593754,13.00692 -2.657029,3.20024 -7.747597,4.41844 -9.965603,5.24227"
         id="path852"
         sodipodi:nodetypes="czzc" />
      <path
         style="fill:none;fill-rule:evenodd;stroke:#5c3566;stroke-width:4;stroke-linecap:butt;stroke-linejoin:miter;stroke-miterlimit:4;stroke-dasharray:none;stroke-opacity:1"
         d="m 69.43086,93.716005 c 0,0 -15.146273,-5.10956 -18.762456,-4.66535 -3.616181,0.44422 -8.579002,6.17005 -12.53727,7.44812 -3.958268,1.27807 -8.909001,-0.42139 -11.223121,-0.91443"
         id="path872"
         sodipodi:nodetypes="czzc" />
      <g
         id="g836"
         style="opacity:1"
         transform="translate(-2.4048041,-0.71095294)">
        <path
           style="color:#000000;font-style:normal;font-variant:normal;font-weight:normal;font-stretch:normal;font-size:medium;line-height:normal;font-family:sans-serif;font-variant-ligatures:normal;font-variant-position:normal;font-variant-caps:normal;font-variant-numeric:normal;font-variant-alternates:normal;font-variant-east-asian:normal;font-feature-settings:normal;font-variation-settings:normal;text-indent:0;text-align:start;text-decoration:none;text-decoration-line:none;text-decoration-style:solid;text-decoration-color:#000000;letter-spacing:normal;word-spacing:normal;text-transform:none;writing-mode:lr-tb;direction:ltr;text-orientation:mixed;dominant-baseline:auto;baseline-shift:baseline;text-anchor:start;white-space:normal;shape-padding:0;shape-margin:0;inline-size:0;clip-rule:nonzero;display:inline;overflow:visible;visibility:visible;isolation:auto;mix-blend-mode:normal;color-interpolation:sRGB;color-interpolation-filters:linearRGB;solid-color:#000000;solid-opacity:1;vector-effect:none;fill:#f3bf5f;fill-opacity:1;fill-rule:nonzero;stroke:none;stroke-width:3;stroke-linecap:butt;stroke-linejoin:miter;stroke-miterlimit:4;stroke-dasharray:none;stroke-dashoffset:0;stroke-opacity:1;color-rendering:auto;image-rendering:auto;shape-rendering:auto;text-rendering:auto;enable-background:accumulate;stop-color:#000000;stop-opacity:1"
           d="m 82.744141,62.039062 c -1.640463,0.558594 -2.859662,1.849749 -4.294152,2.762892 -0.917687,0.59409 -1.982543,0.964991 -3.077487,1.019485 -0.977585,0.09343 -2.04739,0.147431 -2.842508,0.796943 -1.02955,0.832066 -1.557132,2.090313 -2.410569,3.076593 -1.22668,1.445271 -3.081513,2.180644 -4.267863,3.666353 -1.119305,1.487088 -1.48812,3.42416 -2.755712,4.814324 -0.976575,0.956214 -2.024545,1.838859 -3.004053,2.793098 -0.188207,0.502683 -0.158799,1.053506 -0.168434,1.581548 0.02818,1.27584 0.289703,2.530149 0.426246,3.794945 -0.0084,0.500301 -0.344684,0.907591 -0.514711,1.360361 -0.524695,1.123576 -1.054249,2.244861 -1.586851,3.364708 -0.02431,1.470093 0.609195,2.85794 1.396484,4.066407 0.803318,1.451898 1.258468,3.123168 1.130313,4.788599 -0.01047,0.906362 -0.02432,1.812802 -0.01117,2.719212 1.224977,1.88273 3.24778,3.1047 4.347656,5.08203 0.623713,1.24635 1.079402,2.6274 2.087891,3.63282 1.398159,1.17029 3.280739,1.59521 4.595703,2.88085 0.91257,1.04781 1.647096,2.23301 2.511719,3.31836 1.986658,1.02501 4.200364,1.49069 6.39162,1.83895 0.674651,0.0973 1.357118,0.18008 2.038994,0.1654 1.699253,-0.23472 3.169792,-1.19851 4.55962,-2.14106 1.094341,-0.64673 1.672394,-2.07906 1.253906,-3.29297 -0.29745,-1.21982 -0.803994,-2.45482 -0.589838,-3.73226 0.259841,-1.3269 1.496339,-2.20708 1.74806,-3.53826 0.174165,-1.03305 -0.317069,-2.00891 -0.684751,-2.94285 -0.424723,-1.03635 -0.954861,-2.1211 -0.794096,-3.27386 0.196473,-1.415939 0.905813,-2.744464 0.840156,-4.198321 -0.259202,-1.669013 -1.418537,-3.067027 -1.539062,-4.769531 -0.0454,-1.722396 0.898535,-3.320305 0.743481,-5.049573 -0.263757,-1.690327 -1.293992,-3.189133 -1.335278,-4.925036 0.0045,-1.142023 0.674872,-2.118261 1.210414,-3.077752 0.421074,-0.737715 0.715184,-1.655935 0.386129,-2.485206 -0.439666,-1.267805 -1.425299,-2.322484 -1.586777,-3.688995 -0.142007,-1.138608 0.400913,-2.198556 0.823766,-3.218275 0.462746,-1.079944 0.990432,-2.215876 0.857874,-3.42235 -0.169565,-1.156603 -1.064853,-2.073964 -2.079598,-2.57658 -1.1668,-0.629091 -2.473551,-0.92283 -3.760245,-1.194905 z"
           id="path838" />
        <path
           style="color:#000000;font-style:normal;font-variant:normal;font-weight:normal;font-stretch:normal;font-size:medium;line-height:normal;font-family:sans-serif;font-variant-ligatures:normal;font-variant-position:normal;font-variant-caps:normal;font-variant-numeric:normal;font-variant-alternates:normal;font-variant-east-asian:normal;font-feature-settings:normal;font-variation-settings:normal;text-indent:0;text-align:start;text-decoration:none;text-decoration-line:none;text-decoration-style:solid;text-decoration-color:#000000;letter-spacing:normal;word-spacing:normal;text-transform:none;writing-mode:lr-tb;direction:ltr;text-orientation:mixed;dominant-baseline:auto;baseline-shift:baseline;text-anchor:start;white-space:normal;shape-padding:0;shape-margin:0;inline-size:0;clip-rule:nonzero;display:inline;overflow:visible;visibility:visible;isolation:auto;mix-blend-mode:normal;color-interpolation:sRGB;color-interpolation-filters:linearRGB;solid-color:#000000;solid-opacity:1;vector-effect:none;fill:#5c3566;fill-opacity:1;fill-rule:nonzero;stroke:none;stroke-width:3;stroke-linecap:butt;stroke-linejoin:miter;stroke-miterlimit:4;stroke-dasharray:none;stroke-dashoffset:0;stroke-opacity:1;color-rendering:auto;image-rendering:auto;shape-rendering:auto;text-rendering:auto;enable-background:accumulate;stop-color:#000000;stop-opacity:1"
           d="m 82.208984,61.388672 c -1.99986,0.821393 -3.503286,2.522675 -5.552734,3.246094 -1.340106,0.370299 -2.795154,0.143715 -4.091797,0.699218 -1.096616,0.633373 -1.706035,1.787903 -2.389804,2.804119 -0.831304,1.298804 -1.992173,2.360524 -3.287432,3.185244 -1.025007,0.740388 -1.999391,1.65124 -2.462349,2.856539 -0.592034,1.271575 -1.026894,2.683155 -2.073626,3.673303 -0.978575,0.916933 -2.014454,1.775179 -2.927414,2.760092 -0.450297,0.978353 -0.247,2.079974 -0.134766,3.107422 0.173723,1.258912 0.397181,2.590263 -0.06048,3.817207 -0.503815,1.360886 -1.250392,2.623974 -1.666078,4.018731 -0.05189,1.263711 0.573367,2.408482 1.073835,3.527619 0.565236,1.186194 1.106324,2.423314 1.197083,3.751249 0.169735,1.451881 0.06725,2.938551 0.44002,4.363711 0.273977,0.52241 0.721341,0.92216 1.115629,1.35134 1.10169,1.11826 2.400071,2.09124 3.189921,3.47572 0.595503,1.23784 1.010291,2.58689 1.879996,3.67294 1.5151,1.30396 3.566605,1.79178 5.019532,3.18164 0.955802,1.08683 1.668672,2.39163 2.800781,3.31836 2.229274,1.13288 4.698148,1.65392 7.132004,2.14055 1.475733,0.2019 3.008601,-0.21209 4.212597,-1.08079 1.245241,-0.72573 2.576927,-1.41475 3.479618,-2.57539 0.564482,-0.87998 0.482173,-1.99214 0.246093,-2.96484 -0.249359,-1.09568 -0.656418,-2.23397 -0.363281,-3.36328 0.384243,-1.21065 1.558009,-2.00636 1.820007,-3.27172 0.244145,-1.05189 -0.200074,-2.09889 -0.667098,-3.0214 -0.499117,-1.00784 -1.11413,-2.04682 -1.06496,-3.21124 0.06458,-1.502579 1.04856,-2.830314 0.938962,-4.35645 -0.0831,-1.682111 -1.170314,-3.148052 -1.149958,-4.846222 0.03894,-1.63012 0.861555,-3.144675 0.796437,-4.784285 -0.132502,-1.089865 -0.79904,-1.998983 -1.253007,-2.970336 -0.406767,-0.801794 -0.816537,-1.708551 -0.596361,-2.626339 0.314482,-1.391588 1.525025,-2.335453 1.985806,-3.661148 0.210909,-0.570446 0.146178,-1.202512 -0.08326,-1.756721 -0.455855,-1.196961 -1.42393,-2.183651 -1.59403,-3.488566 -0.14065,-1.041966 0.282788,-2.042618 0.706042,-2.969113 0.427122,-1.0338 0.949362,-2.111387 0.826662,-3.261017 -0.200406,-1.441297 -1.252276,-2.64759 -2.519788,-3.29739 -1.431159,-0.830883 -3.04654,-1.309445 -4.682558,-1.51907 -0.08008,0.02474 -0.160156,0.04948 -0.240235,0.07422 z m 1.371094,1.734375 c 1.457877,0.335156 2.851672,1.010592 3.955078,2.029297 0.631117,0.862543 0.589898,2.059856 0.148438,2.996094 -0.510992,1.373355 -1.188991,2.740056 -1.203125,4.236328 0.103062,1.362289 0.964728,2.482714 1.43947,3.723502 0.314108,0.850627 0.16456,1.81931 -0.286488,2.592362 -0.469539,0.975676 -1.139676,1.930693 -1.134514,3.05671 -0.04077,1.916417 1.134232,3.623445 1.083521,5.541004 -0.04215,1.488505 -0.769147,2.87469 -0.737059,4.37214 0.0055,1.198488 0.630928,2.259808 1.057235,3.344946 0.295361,0.730122 0.555281,1.522492 0.421059,2.318766 -0.187575,1.546542 -0.981173,2.994974 -0.878381,4.579864 0.150321,1.52706 1.018235,2.90603 1.019858,4.45605 -0.05181,0.97895 -0.627725,1.8135 -1.038666,2.67212 -0.39178,0.76321 -0.691683,1.62098 -0.5602,2.49036 0.119652,1.22641 0.679249,2.42073 0.471532,3.66919 -0.143455,1.0003 -0.945263,1.74431 -1.766947,2.24762 -1.249045,0.76014 -2.669969,1.40328 -4.165952,1.30034 -1.048635,-0.0841 -2.074303,-0.33331 -3.107033,-0.52172 -1.145264,-0.25078 -2.319765,-0.52676 -3.323295,-1.15771 -0.980188,-0.66937 -1.583976,-1.71685 -2.242187,-2.67383 -0.60319,-0.85387 -1.335945,-1.65667 -2.293213,-2.11398 -1.096685,-0.63573 -2.346894,-1.12948 -3.136597,-2.16997 -1.153534,-1.63338 -1.819437,-3.6021 -3.257828,-5.03234 -0.797206,-0.85258 -1.682631,-1.64053 -2.310409,-2.63488 -0.448891,-1.39784 -0.07628,-2.86739 -0.142821,-4.298315 -0.04231,-1.49199 -0.788603,-2.831786 -1.498657,-4.102187 -0.318625,-0.569435 -0.639177,-1.138618 -0.915163,-1.730355 -0.151879,-1.116108 0.362111,-2.167233 0.803779,-3.157054 0.537186,-1.13372 1.10227,-2.324076 1.06156,-3.609581 0.03556,-1.192539 -0.08418,-2.382753 -0.07432,-3.575162 0.607696,-1.330318 1.818297,-2.214871 2.844143,-3.202764 1.193719,-1.194737 1.746785,-2.829025 2.589354,-4.25712 0.917129,-1.397458 2.310483,-2.369826 3.652233,-3.321384 1.390835,-1.131869 2.1876,-2.839416 3.638557,-3.905614 1.331343,-0.748391 2.955675,-0.509816 4.322588,-1.154915 1.271494,-0.615928 2.246814,-1.677202 3.453072,-2.397301 0.549199,-0.345785 1.161862,-0.631522 1.818412,-0.673011 0.09766,0.02083 0.195313,0.04167 0.292969,0.0625 z"
           id="path840" />
      </g>
      <path
         style="fill:none;fill-rule:evenodd;stroke:#5c3566;stroke-width:4;stroke-linecap:butt;stroke-linejoin:miter;stroke-miterlimit:4;stroke-dasharray:none;stroke-opacity:1"
         d="m 46.433541,55.545008 c -2.657029,3.20024 -7.747597,4.418442 -9.965603,5.242273"
         id="path876"
         sodipodi:nodetypes="cc"
         inkscape:transform-center-x="-1.411161"
         inkscape:transform-center-y="-4.0312192" />
      <path
         style="fill:none;fill-rule:evenodd;stroke:#5c3566;stroke-width:4;stroke-linecap:butt;stroke-linejoin:miter;stroke-miterlimit:4;stroke-dasharray:none;stroke-opacity:1"
         d="m 130.0831,54.845589 c 2.65703,3.20024 7.7476,4.418442 9.9656,5.242273"
         id="path876-6"
         sodipodi:nodetypes="cc"
         inkscape:transform-center-x="1.4111623"
         inkscape:transform-center-y="-4.0312192" />
    </g>
  </g>
  <g
     inkscape:groupmode="layer"
     id="layer2"
     inkscape:label="Calque 2"
     style="display:inline"
     transform="translate(-21.491253,-44.088269)">
    <path
       style="display:inline;fill:none;fill-rule:evenodd;stroke:#5c3566;stroke-width:2;stroke-linecap:butt;stroke-linejoin:miter;stroke-miterlimit:4;stroke-dasharray:none;stroke-opacity:1"
       d="m 104.02078,80.668778 c 0,0 -3.19147,3.292093 -6.006533,0.979187 -2.81506,-2.312906 7.251133,-7.484507 4.594103,-10.684747 -2.657036,-3.20024 -3.031046,-1.431919 -5.24906,-2.25575"
       id="path854-7"
       sodipodi:nodetypes="czzc" />
    <path
       style="display:inline;fill:none;fill-rule:evenodd;stroke:#5c3566;stroke-width:2;stroke-linecap:butt;stroke-linejoin:miter;stroke-miterlimit:4;stroke-dasharray:none;stroke-opacity:1"
       d="m 108.3355,80.140065 c 0,0 3.08556,-1.842109 5.90062,0.470794 2.81506,2.312906 -5.41534,6.374956 -2.75831,9.575196 2.65704,3.20024 0.73631,5.416206 2.95432,6.240037"
       id="path854-7-5"
       sodipodi:nodetypes="czzc" />
    <path
       style="display:inline;fill:none;fill-rule:evenodd;stroke:#5c3566;stroke-width:2;stroke-linecap:butt;stroke-linejoin:miter;stroke-miterlimit:4;stroke-dasharray:none;stroke-opacity:1"
       d="m 97.778633,109.93766 c 0,0 2.204299,1.75085 5.689507,0.68905 3.48521,-1.0618 -2.68145,-5.21591 0.99676,-7.15809 3.67822,-1.94219 3.03236,-2.69395 5.39685,-2.60779"
       id="path854-7-3"
       sodipodi:nodetypes="czzc" />
    <path
       style="display:inline;fill:none;fill-rule:evenodd;stroke:#5c3566;stroke-width:2;stroke-linecap:butt;stroke-linejoin:miter;stroke-miterlimit:4;stroke-dasharray:none;stroke-opacity:1"
       d="m 104.71371,89.886717 c 0,0 -5.097872,-2.737322 -7.912935,-0.424412 -2.815062,2.312907 6.615665,4.332381 3.958635,7.532622 -2.65704,3.200233 -2.360285,5.769233 -4.578295,6.593063"
       id="path854-7-56"
       sodipodi:nodetypes="czzc" />
    <path
       style="display:inline;fill:none;fill-rule:evenodd;stroke:#5c3566;stroke-width:2;stroke-linecap:butt;stroke-linejoin:miter;stroke-miterlimit:4;stroke-dasharray:none;stroke-opacity:1"
       d="m 75.070198,96.734178 c 0,0 3.22677,1.665597 6.041835,-0.647309 2.81506,-2.312906 -6.350889,-6.236266 -3.693856,-9.436507 2.657041,-3.20024 2.113155,-4.470571 4.331165,-5.294402"
       id="path854-7-2"
       sodipodi:nodetypes="czzc" />
    <path
       style="display:inline;fill:none;fill-rule:evenodd;stroke:#5c3566;stroke-width:2.2;stroke-linecap:butt;stroke-linejoin:miter;stroke-miterlimit:4;stroke-dasharray:none;stroke-opacity:1"
       d="m 65.020261,81.101775 c 0,0 -3.393467,1.292534 -3.548555,4.9326 -0.155085,3.640061 6.820481,-0.592634 7.431825,3.521685 0.611339,4.114325 -2.917111,4.552736 -3.783139,6.754613"
       id="path854-7-9"
       sodipodi:nodetypes="czzc" />
    <path
       style="display:inline;fill:none;fill-rule:evenodd;stroke:#5c3566;stroke-width:2;stroke-linecap:butt;stroke-linejoin:miter;stroke-miterlimit:4;stroke-dasharray:none;stroke-opacity:1"
       d="m 69.396288,99.69843 c 0,0 -2.852648,2.24691 -1.913672,5.7672 0.938987,3.52029 6.332306,-2.60232 8.14437,1.14171 1.812062,3.74404 4.624618,2.91383 4.455628,5.27385"
       id="path854-7-1"
       sodipodi:nodetypes="czzc" />
    <path
       style="display:inline;fill:none;fill-rule:evenodd;stroke:#5c3566;stroke-width:2;stroke-linecap:butt;stroke-linejoin:miter;stroke-miterlimit:4;stroke-dasharray:none;stroke-opacity:1"
       d="m 81.018914,70.16069 c 0,0 -2.60436,-2.530526 -5.969594,-1.134341 -3.365227,1.396187 0.09616,4.785998 -3.375414,7.077186 -3.471581,2.291183 0.231793,6.645473 -2.129854,6.790005"
       id="path854-7-27"
       sodipodi:nodetypes="czzc" />
  </g>
</svg>
